<svg width="32" height="32" viewBox="0 0 32 32" xmlns="http://www.w3.org/2000/svg">
  <rect width="32" height="32" rx="8" fill="#2563eb"/>
  <path d="M6 20.5c0-.6.4-1 1-1h1.2l1.4-4.2c.3-.9 1.1-1.5 2.1-1.5h8.6c1 0 1.8.6 2.1 1.5l1.4 4.2H25c.6 0 1 .4 1 1v2c0 .6-.4 1-1 1h-1.1a2.4 2.4 0 0 1-4.6 0h-6.6a2.4 2.4 0 0 1-4.6 0H7c-.6 0-1-.4-1-1v-2Z" fill="white"/>
  <circle cx="11.8" cy="23.5" r="1.4" fill="#2563eb"/>
  <circle cx="20.2" cy="23.5" r="1.4" fill="#2563eb"/>
  <path d="M10.8 15.5l-1 3h12.4l-1-3c-.1-.3-.4-.5-.7-.5h-9c-.3 0-.6.2-.7.5Z" fill="#2563eb"/>
</svg>
